<mxfile host="Electron" modified="2023-12-21T20:19:02.143Z" agent="Mozilla/5.0 (Windows NT 10.0; Win64; x64) AppleWebKit/537.36 (KHTML, like Gecko) draw.io/22.1.11 Chrome/114.0.5735.289 Electron/25.9.8 Safari/537.36" etag="vVplDbTqTL4bgAE35dv7" version="22.1.11" type="device" pages="3">
  <diagram id="5myy5xj2Y_G0F1QOfdn1" name="MainWindow">
    <mxGraphModel dx="954" dy="674" grid="1" gridSize="10" guides="1" tooltips="1" connect="1" arrows="1" fold="1" page="1" pageScale="1" pageWidth="850" pageHeight="1100" math="0" shadow="0">
      <root>
        <mxCell id="0" />
        <mxCell id="1" parent="0" />
        <mxCell id="VFIQyvQ3cJOvAuE0jDos-2" value="" style="swimlane;startSize=0;" parent="1" vertex="1">
          <mxGeometry width="800" height="600" as="geometry">
            <mxRectangle width="50" height="40" as="alternateBounds" />
          </mxGeometry>
        </mxCell>
        <UserObject label="" link="data:page/id,MS9UQkwXWm9LiSbzcOWU" id="VFIQyvQ3cJOvAuE0jDos-21">
          <mxCell style="swimlane;startSize=0;" parent="VFIQyvQ3cJOvAuE0jDos-2" vertex="1">
            <mxGeometry x="240" y="10" width="550" height="580" as="geometry" />
          </mxCell>
        </UserObject>
        <mxCell id="GkE6lfzXBTEXSFQ-Vu0B-1" value="" style="swimlane;startSize=0;" vertex="1" parent="VFIQyvQ3cJOvAuE0jDos-2">
          <mxGeometry x="10" y="10" width="220" height="280" as="geometry" />
        </mxCell>
        <mxCell id="VFIQyvQ3cJOvAuE0jDos-22" value="" style="swimlane;startSize=0;" parent="1" vertex="1">
          <mxGeometry x="10" y="300" width="220" height="290" as="geometry" />
        </mxCell>
      </root>
    </mxGraphModel>
  </diagram>
  <diagram id="EBrC_OIpPl2Jw5c8e01Q" name="ButtonsContainer">
    <mxGraphModel dx="545" dy="385" grid="1" gridSize="10" guides="1" tooltips="1" connect="1" arrows="1" fold="1" page="1" pageScale="1" pageWidth="850" pageHeight="1100" math="0" shadow="0">
      <root>
        <mxCell id="0" />
        <mxCell id="1" parent="0" />
        <mxCell id="DArCPEWvdB_SIImqpcO3-1" value="" style="swimlane;startSize=0;" vertex="1" parent="1">
          <mxGeometry width="220" height="280" as="geometry" />
        </mxCell>
        <mxCell id="JHlmbFY2jbXaYO7-ouuh-1" value="&lt;font style=&quot;font-size: 18px;&quot;&gt;Reveal&lt;/font&gt;" style="rounded=0;whiteSpace=wrap;html=1;fontSize=18;fontFamily=Roboto Mono;fontSource=https%3A%2F%2Ffonts.googleapis.com%2Fcss%3Ffamily%3DRoboto%2BMono;" vertex="1" parent="DArCPEWvdB_SIImqpcO3-1">
          <mxGeometry x="10" y="10" width="200" height="30" as="geometry" />
        </mxCell>
        <mxCell id="JHlmbFY2jbXaYO7-ouuh-2" value="&lt;font style=&quot;font-size: 18px;&quot;&gt;Analysis [+]&lt;/font&gt;" style="rounded=0;whiteSpace=wrap;html=1;fontSize=18;fontFamily=Roboto Mono;fontSource=https%3A%2F%2Ffonts.googleapis.com%2Fcss%3Ffamily%3DRoboto%2BMono;" vertex="1" parent="DArCPEWvdB_SIImqpcO3-1">
          <mxGeometry x="10" y="50" width="200" height="30" as="geometry" />
        </mxCell>
        <mxCell id="JHlmbFY2jbXaYO7-ouuh-3" value="Words in dictionary:" style="text;html=1;align=left;verticalAlign=middle;resizable=0;points=[];autosize=1;strokeColor=none;fillColor=none;spacingLeft=0;fontFamily=Roboto Mono;fontSource=https%3A%2F%2Ffonts.googleapis.com%2Fcss%3Ffamily%3DRoboto%2BMono;" vertex="1" parent="DArCPEWvdB_SIImqpcO3-1">
          <mxGeometry x="10" y="90" width="170" height="30" as="geometry" />
        </mxCell>
        <mxCell id="JHlmbFY2jbXaYO7-ouuh-5" value="Words of length 9:" style="text;html=1;align=left;verticalAlign=middle;resizable=0;points=[];autosize=1;strokeColor=none;fillColor=none;spacingLeft=0;fontFamily=Roboto Mono;fontSource=https%3A%2F%2Ffonts.googleapis.com%2Fcss%3Ffamily%3DRoboto%2BMono;" vertex="1" parent="DArCPEWvdB_SIImqpcO3-1">
          <mxGeometry x="10" y="150" width="150" height="30" as="geometry" />
        </mxCell>
        <mxCell id="JHlmbFY2jbXaYO7-ouuh-6" value="216" style="text;html=1;align=left;verticalAlign=middle;resizable=0;points=[];autosize=1;strokeColor=none;fillColor=none;fontFamily=Roboto Mono;fontSource=https%3A%2F%2Ffonts.googleapis.com%2Fcss%3Ffamily%3DRoboto%2BMono;" vertex="1" parent="DArCPEWvdB_SIImqpcO3-1">
          <mxGeometry x="20" y="180" width="50" height="30" as="geometry" />
        </mxCell>
        <mxCell id="JHlmbFY2jbXaYO7-ouuh-7" value="Words compatible:" style="text;html=1;align=left;verticalAlign=middle;resizable=0;points=[];autosize=1;strokeColor=none;fillColor=none;spacingLeft=0;fontFamily=Roboto Mono;fontSource=https%3A%2F%2Ffonts.googleapis.com%2Fcss%3Ffamily%3DRoboto%2BMono;" vertex="1" parent="DArCPEWvdB_SIImqpcO3-1">
          <mxGeometry x="10" y="210" width="140" height="30" as="geometry" />
        </mxCell>
        <mxCell id="JHlmbFY2jbXaYO7-ouuh-8" value="11&lt;br&gt;" style="text;html=1;align=left;verticalAlign=middle;resizable=0;points=[];autosize=1;strokeColor=none;fillColor=none;fontFamily=Roboto Mono;fontSource=https%3A%2F%2Ffonts.googleapis.com%2Fcss%3Ffamily%3DRoboto%2BMono;" vertex="1" parent="DArCPEWvdB_SIImqpcO3-1">
          <mxGeometry x="20" y="240" width="40" height="30" as="geometry" />
        </mxCell>
        <mxCell id="JHlmbFY2jbXaYO7-ouuh-10" value="Look" style="rounded=0;whiteSpace=wrap;html=1;fontFamily=Roboto Mono;fontSource=https%3A%2F%2Ffonts.googleapis.com%2Fcss%3Ffamily%3DRoboto%2BMono;fontSize=12;verticalAlign=middle;" vertex="1" parent="DArCPEWvdB_SIImqpcO3-1">
          <mxGeometry x="60" y="125" width="70" height="20" as="geometry" />
        </mxCell>
        <mxCell id="VlHondBxNDUVQsTvafjI-2" value="Letters" style="rounded=0;whiteSpace=wrap;html=1;fontFamily=Roboto Mono;fontSource=https%3A%2F%2Ffonts.googleapis.com%2Fcss%3Ffamily%3DRoboto%2BMono;fontSize=12;verticalAlign=middle;" vertex="1" parent="DArCPEWvdB_SIImqpcO3-1">
          <mxGeometry x="140" y="125" width="70" height="20" as="geometry" />
        </mxCell>
        <mxCell id="JHlmbFY2jbXaYO7-ouuh-4" value="2747" style="text;html=1;align=left;verticalAlign=middle;resizable=0;points=[];autosize=1;strokeColor=none;fillColor=none;fontFamily=Roboto Mono;fontSource=https%3A%2F%2Ffonts.googleapis.com%2Fcss%3Ffamily%3DRoboto%2BMono;" vertex="1" parent="DArCPEWvdB_SIImqpcO3-1">
          <mxGeometry x="20" y="120" width="50" height="30" as="geometry" />
        </mxCell>
        <mxCell id="VlHondBxNDUVQsTvafjI-7" value="Look" style="rounded=0;whiteSpace=wrap;html=1;fontFamily=Roboto Mono;fontSource=https%3A%2F%2Ffonts.googleapis.com%2Fcss%3Ffamily%3DRoboto%2BMono;fontSize=12;verticalAlign=middle;" vertex="1" parent="DArCPEWvdB_SIImqpcO3-1">
          <mxGeometry x="60" y="185" width="70" height="20" as="geometry" />
        </mxCell>
        <mxCell id="VlHondBxNDUVQsTvafjI-8" value="Letters" style="rounded=0;whiteSpace=wrap;html=1;fontFamily=Roboto Mono;fontSource=https%3A%2F%2Ffonts.googleapis.com%2Fcss%3Ffamily%3DRoboto%2BMono;fontSize=12;verticalAlign=middle;" vertex="1" parent="DArCPEWvdB_SIImqpcO3-1">
          <mxGeometry x="140" y="185" width="70" height="20" as="geometry" />
        </mxCell>
        <mxCell id="VlHondBxNDUVQsTvafjI-9" value="Look" style="rounded=0;whiteSpace=wrap;html=1;fontFamily=Roboto Mono;fontSource=https%3A%2F%2Ffonts.googleapis.com%2Fcss%3Ffamily%3DRoboto%2BMono;fontSize=12;verticalAlign=middle;" vertex="1" parent="DArCPEWvdB_SIImqpcO3-1">
          <mxGeometry x="60" y="245" width="70" height="20" as="geometry" />
        </mxCell>
        <mxCell id="VlHondBxNDUVQsTvafjI-10" value="Letters" style="rounded=0;whiteSpace=wrap;html=1;fontFamily=Roboto Mono;fontSource=https%3A%2F%2Ffonts.googleapis.com%2Fcss%3Ffamily%3DRoboto%2BMono;fontSize=12;verticalAlign=middle;" vertex="1" parent="DArCPEWvdB_SIImqpcO3-1">
          <mxGeometry x="140" y="245" width="70" height="20" as="geometry" />
        </mxCell>
      </root>
    </mxGraphModel>
  </diagram>
  <diagram id="MS9UQkwXWm9LiSbzcOWU" name="GameContainer">
    <mxGraphModel dx="1122" dy="793" grid="1" gridSize="10" guides="1" tooltips="1" connect="1" arrows="1" fold="1" page="1" pageScale="1" pageWidth="850" pageHeight="1100" math="0" shadow="0">
      <root>
        <mxCell id="0" />
        <mxCell id="1" parent="0" />
        <mxCell id="VCleZGmiw_skUmdR5_1N-1" value="" style="swimlane;startSize=0;fontFamily=Roboto Mono;fontSource=https%3A%2F%2Ffonts.googleapis.com%2Fcss%3Ffamily%3DRoboto%2BMono;fontStyle=0" parent="1" vertex="1">
          <mxGeometry width="550" height="580" as="geometry" />
        </mxCell>
        <mxCell id="VCleZGmiw_skUmdR5_1N-2" value="_______" style="text;html=1;align=center;verticalAlign=middle;resizable=0;points=[];autosize=1;strokeColor=none;fillColor=none;fontSize=24;fontFamily=Roboto Mono;fontSource=https%3A%2F%2Ffonts.googleapis.com%2Fcss%3Ffamily%3DRoboto%2BMono;" parent="VCleZGmiw_skUmdR5_1N-1" vertex="1">
          <mxGeometry x="215" y="60" width="120" height="40" as="geometry" />
        </mxCell>
        <mxCell id="VCleZGmiw_skUmdR5_1N-3" value="Wrong Letters (3):" style="text;html=1;align=center;verticalAlign=middle;resizable=0;points=[];autosize=1;strokeColor=none;fillColor=none;fontSize=24;fontFamily=Roboto Mono;fontSource=https%3A%2F%2Ffonts.googleapis.com%2Fcss%3Ffamily%3DRoboto%2BMono;" parent="VCleZGmiw_skUmdR5_1N-1" vertex="1">
          <mxGeometry x="135" y="120" width="280" height="40" as="geometry" />
        </mxCell>
        <mxCell id="VCleZGmiw_skUmdR5_1N-4" value="A B C" style="text;html=1;align=center;verticalAlign=middle;resizable=0;points=[];autosize=1;strokeColor=none;fillColor=none;fontSize=24;fontFamily=Roboto Mono;fontSource=https%3A%2F%2Ffonts.googleapis.com%2Fcss%3Ffamily%3DRoboto%2BMono;" parent="VCleZGmiw_skUmdR5_1N-1" vertex="1">
          <mxGeometry x="220" y="160" width="100" height="40" as="geometry" />
        </mxCell>
        <mxCell id="VCleZGmiw_skUmdR5_1N-5" value="Current Letter:" style="text;html=1;align=center;verticalAlign=middle;resizable=0;points=[];autosize=1;strokeColor=none;fillColor=none;fontSize=24;fontFamily=Roboto Mono;fontSource=https%3A%2F%2Ffonts.googleapis.com%2Fcss%3Ffamily%3DRoboto%2BMono;" parent="VCleZGmiw_skUmdR5_1N-1" vertex="1">
          <mxGeometry x="155" y="220" width="240" height="40" as="geometry" />
        </mxCell>
        <mxCell id="VCleZGmiw_skUmdR5_1N-6" value="P" style="text;html=1;align=center;verticalAlign=middle;resizable=0;points=[];autosize=1;strokeColor=none;fillColor=none;fontSize=24;fontFamily=Roboto Mono;fontSource=https%3A%2F%2Ffonts.googleapis.com%2Fcss%3Ffamily%3DRoboto%2BMono;" parent="VCleZGmiw_skUmdR5_1N-1" vertex="1">
          <mxGeometry x="255" y="260" width="40" height="40" as="geometry" />
        </mxCell>
        <mxCell id="zvU0MEwKikRSz2J8116L-1" value="" style="swimlane;startSize=0;" parent="VCleZGmiw_skUmdR5_1N-1" vertex="1">
          <mxGeometry x="120" y="320" width="300" height="230" as="geometry" />
        </mxCell>
      </root>
    </mxGraphModel>
  </diagram>
</mxfile>
